<?xml version="1.0" encoding="UTF-8"?>
<svg id="Layer_1" data-name="Layer 1" xmlns="http://www.w3.org/2000/svg" width="500" height="300" version="1.1" viewBox="0 0 500 300">
  <defs>
    <style>
      .cls-1 {
        fill: #fcd164;
      }

      .cls-1, .cls-2 {
        stroke-width: 0px;
      }

      .cls-2 {
        fill: #fff;
      }
    </style>
  </defs>
  <g>
    <g>
      <path class="cls-1" d="M206.483,161.233c-19.202-3.054-38.421-5.845-57.77-7.868-17.345-1.813-34.685-3.685-51.943-6.22-6.19-.909-12.439-1.889-18.702-2.982-.535.228-1.073.45-1.607.682-15.797,6.887-32.449,15.565-45.547,26.857-4.822,4.156-11.461,10.342-10.814,17.419.032.35.086.693.153,1.031.899,1.912,1.858,3.79,2.877,5.632,2.27,2.719,5.421,4.917,8.138,6.639,13.034,8.261,28.801,13.829,43.345,18.779,22.031,7.499,44.98,12.272,68.046,15.196,2.49.316,4.983.605,7.476.878,30.147-13.49,52.195-42.103,56.348-76.044Z"/>
      <path class="cls-1" d="M48.831,147.731c4.187-2.371,8.424-4.618,12.711-6.744-16.248-3.452-32.344-7.963-47.556-14.32-1.818,7.351-2.79,15.025-2.79,22.917h0c0,8.628,1.16,16.996,3.321,24.965,7.566-12.025,23.071-20.449,34.313-26.817Z"/>
      <path class="cls-1" d="M77.199,133.88c8.982-3.707,18.186-6.883,27.636-9.483,31.058-8.544,62.698-11.841,94.566-12.59-14.743-34.158-48.798-58.224-88.205-58.224h-4c-41.347,0-76.805,26.493-90.243,63.341,5.325,2.209,10.751,4.179,16.217,5.958,14.406,4.69,29.139,8.21,44.028,10.997Z"/>
      <path class="cls-1" d="M89.366,236.162c-16.642-4.532-33.168-10.577-48.923-17.757,17.31,16.797,40.876,27.178,66.753,27.178h4c5.524,0,10.94-.479,16.215-1.386-12.76-1.997-25.451-4.605-38.046-8.035Z"/>
      <path class="cls-1" d="M135.078,141.925c24.154,2.611,48.132,6.035,72.093,9.663.014-.667.026-1.335.026-2.005h0c0-9.586-1.43-18.852-4.077-27.604-35.663.667-72.189,4.087-106.299,15.173,12.728,1.892,25.515,3.395,38.257,4.773Z"/>
      <path class="cls-1" d="M111.675,75.983h-4.957c-31.646,0-58.81,20.136-69.333,48.226,13.061,4.032,26.372,7.155,39.814,9.671,8.982-3.707,18.186-6.883,27.636-9.483,23.315-6.414,46.957-9.871,70.778-11.513-12.859-22.016-36.737-36.901-63.938-36.901Z"/>
      <path class="cls-1" d="M135.078,141.925c16.921,1.829,33.754,4.065,50.557,6.481-.191-9.006-2.009-17.625-5.175-25.581-28.31,1.616-56.727,5.581-83.639,14.327,12.728,1.892,25.515,3.395,38.257,4.773Z"/>
      <path class="cls-1" d="M106.718,223.983h4.957c37.993,0,69.528-29.021,73.556-65.989-12.14-1.762-24.302-3.352-36.517-4.628-17.345-1.813-34.685-3.685-51.943-6.22-6.19-.909-12.439-1.889-18.702-2.982-.535.228-1.073.45-1.607.682-14.185,6.185-29.051,13.82-41.423,23.488,8.217,31.899,37.309,55.648,71.68,55.648Z"/>
      <path class="cls-1" d="M32.719,149.983c0,2.406.125,4.783.353,7.131,5.398-3.581,10.967-6.669,15.76-9.384,4.187-2.371,8.424-4.618,12.711-6.744-9.112-1.936-18.175-4.208-27.064-6.945-1.14,5.14-1.76,10.471-1.76,15.942h0Z"/>
    </g>
    <g>
      <path class="cls-1" d="M453.82,214.942h-53.123v23.641h13.221c3.317-1.001,6.537-2.239,9.62-3.776,7.135-3.555,14.142-7.689,20.685-12.238,3.151-2.191,6.617-4.71,9.597-7.628Z"/>
      <path class="cls-1" d="M466.448,214.942c-4.373,6.547-11.271,12.155-17.177,16.262-3.689,2.565-7.547,5.065-11.507,7.379h51.934v-23.641h-23.249Z"/>
      <path class="cls-1" d="M400.697,118.819c2.551.287,5.098.6,7.639.978,5.99.89,12.989,2.061,19.361,4.402v-45.933c-8.855-3.625-17.874-6.851-27-9.75v50.303Z"/>
      <path class="cls-1" d="M427.697,154.198v-19.035c-4.973-2.285-10.834-3.617-13.607-4.215-4.435-.956-8.904-1.676-13.393-2.243v34.05c6.534-1.201,13.101-2.626,19.273-5.04,2.303-.901,5.104-2.046,7.727-3.517Z"/>
      <path class="cls-1" d="M427.697,67.449v-11.866h-27v2.347c9.125,2.826,18.138,5.988,27,9.519Z"/>
      <path class="cls-1" d="M427.697,232.641v-53.153c-8.828-2.105-17.898-3.154-27-3.547v62.642h13.221c3.317-1.001,6.537-2.239,9.62-3.776,1.394-.695,2.777-1.429,4.159-2.166Z"/>
      <path class="cls-1" d="M424.587,166.567c-1.217.504-2.45.981-3.694,1.435.849.135,1.698.272,2.546.421,1.388.244,2.812.518,4.259.82v-4.079c-1.047.509-2.09.98-3.11,1.403Z"/>
    </g>
    <g>
      <rect class="cls-1" x="242.387" y="127.993" width="108.706" height="19.09"/>
      <path class="cls-1" d="M343.816,167.51c6.956.062,13.906-.071,20.837-.445,1.846-.175,3.694-.338,5.543-.482v-39.745c-8.8-.135-17.613-.082-26.381-.195v40.867Z"/>
      <path class="cls-1" d="M343.816,116.572c5.297.137,10.585.231,15.864.271,3.504.027,7.01.074,10.517.146v-56.856c-7.127-1.677-14.288-3.194-21.482-4.549h-4.899v60.988Z"/>
      <path class="cls-1" d="M370.197,176.654c-.907.052-1.821.111-2.722.158-7.918.683-15.805,1.693-23.659,2.929v58.843h26.381v-61.93Z"/>
      <path class="cls-1" d="M229.197,164.916v37.207c8.3-5.092,17.202-8.828,26.381-11.87v-21.151c-8.811-1.339-17.605-2.756-26.381-4.185Z"/>
      <path class="cls-1" d="M255.578,200.758c-3.969,1.331-7.879,2.835-11.686,4.683-4.942,2.398-9.96,5.237-14.694,8.529v24.614h26.381v-37.826Z"/>
      <path class="cls-1" d="M255.578,122.72c-8.791-.343-17.584-.61-26.381-.749v32.989c8.787,1.357,17.577,2.716,26.381,4.05v-36.289Z"/>
      <path class="cls-1" d="M229.197,111.774c8.787.159,17.583.439,26.381.8v-56.99h-26.381v56.19Z"/>
    </g>
  </g>
  <rect class="cls-2" x="74" y="117" width="69" height="69" rx="34.5" ry="34.5"/>
</svg>