<?xml version="1.0" encoding="UTF-8"?>
<svg id="Layer_1" data-name="Layer 1" xmlns="http://www.w3.org/2000/svg" width="247" height="259" version="1.1" viewBox="0 0 247 259">
  <defs>
    <style>
      .cls-1 {
        fill: #fcd164;
      }

      .cls-1, .cls-2 {
        stroke-width: 0px;
      }

      .cls-2 {
        fill: #fff;
      }
    </style>
  </defs>
  <path class="cls-1" d="M121.3,36.4c5.4,4.9,12.4,6.5,19.5,6.6,8.2.2,17-.7,24.1-5.1-12.3-5.2-25.8-8.1-39.9-8.1h0c-3.1,0-6.2.2-9.3.4,1.7,2.2,3.5,4.3,5.6,6.1h0Z"/>
  <path class="cls-1" d="M175,42.8c-1.5,1.3-3,2.5-4.7,3.6-8.6,5.4-19.4,6.9-29.4,6.6-9.3-.3-18.2-2.5-25.5-8.6-4.2-3.5-7.6-7.9-10.7-12.6-11.6,2.4-22.5,6.7-32.4,12.6.7,9,8.2,16.7,16.1,22.1,22.2,15,53.4,23.2,79.2,13.3,12.2-4.6,20.5-13.2,26.1-23.6-5.7-5.1-12-9.6-18.7-13.4h0Z"/>
  <path class="cls-1" d="M57.1,118.7c16.3,8.5,35,12.6,53.2,14.8,19.5,2.4,39.4,2.6,59,.7,14.9-1.4,31-3.7,44.6-10.2,4.6-2.2,8.8-4.9,12.7-8.1-3.3-19.9-12.4-37.9-25.5-52.3-.1.2-.3.5-.4.7-17.9,29-54,34.6-84.8,25.6-19-5.5-47.3-19-52.9-39.3-14.2,10.7-25.5,25-32.7,41.5,4.7,11.8,15.2,20.5,26.7,26.5h.1Z"/>
  <path class="cls-1" d="M55.7,165.1c15.3,8.3,31.7,11.1,48.8,13.1,18.5,2.2,37.2,3.7,55.9,2.8,18.4-1,36.7-4.7,52.8-13.9,3.8-2.2,7.5-4.5,11.1-6.9,2.4-8.7,3.7-17.9,3.7-27.3h0c0-1.8,0-3.7-.1-5.5-4,2.8-8.3,5.1-13,7-16.2,6.6-34.2,9-51.5,10.3-21.4,1.5-43.1.7-64.3-2.8-25.8-4.2-58.4-14.2-73.3-36.9-2.5,8.9-3.9,18.2-3.9,27.9h0v3.9c9.3,11.4,20.5,21.3,33.6,28.4h.2Z"/>
  <path class="cls-1" d="M121.6,209c26.7,3.1,53.4,1.6,78.7-6.1,7.5-8,13.7-17.2,18.3-27.3-2.6,1.4-5.3,2.8-8,4.1-36.3,16.8-78.4,12-116.9,7.2-17.7-2.2-34.6-7.5-49.8-17.1-7.2-4.6-13.8-10-19.8-15.9,2.7,13.1,8,25.2,15.2,36,27,8.3,54.3,15.9,82.3,19.2h0Z"/>
  <path class="cls-1" d="M123.4,219.2c-24.9-2.7-49.2-8.7-73.2-15.7,18.8,19.9,45.4,32.4,74.8,32.4h0c21.9,0,42.3-6.9,59-18.7-19.8,3.7-40.2,4.3-60.7,2.1h0Z"/>
  <path class="cls-2" d="M128.5,103.3h0c23.5,0,42.6,17.8,42.6,39.8h0c0,22-19.1,39.8-42.6,39.8h0c-23.5,0-42.6-17.8-42.6-39.8h0c0-22,19.1-39.8,42.6-39.8Z"/>
</svg>